<?xml version="1.0" encoding="UTF-8"?>
<svg xmlns="http://www.w3.org/2000/svg" xmlns:xlink="http://www.w3.org/1999/xlink" viewBox="0 0 24 24" version="1.1" width="100px" height="100px">
<g id="surface1">
<path style=" " d="M 20 2 L 4 2 C 2.898438 2 2 2.898438 2 4 L 2 20 C 2 21.101563 2.898438 22 4 22 L 20 22 C 21.101563 22 22 21.101563 22 20 L 22 4 C 22 2.898438 21.101563 2 20 2 Z M 17.601563 8.800781 C 17.601563 8.898438 17.601563 9 17.601563 9.199219 C 17.601563 13 14.699219 17.398438 9.398438 17.398438 C 7.800781 17.398438 6.300781 16.898438 5 16.101563 C 5.199219 16.101563 5.5 16.101563 5.699219 16.101563 C 7 16.101563 8.300781 15.601563 9.300781 14.898438 C 8 14.898438 7 14 6.601563 12.898438 C 6.800781 12.898438 7 13 7.101563 13 C 7.398438 13 7.601563 13 7.898438 12.898438 C 6.601563 12.601563 5.601563 11.5 5.601563 10.101563 C 6 10.300781 6.398438 10.398438 6.898438 10.5 C 6.101563 9.800781 5.601563 9 5.601563 8 C 5.601563 7.5 5.699219 7 6 6.601563 C 7.398438 8.300781 9.5 9.5 11.898438 9.601563 C 11.898438 9.398438 11.800781 9.199219 11.800781 8.898438 C 11.800781 7.300781 13.101563 6 14.699219 6 C 15.5 6 16.300781 6.300781 16.800781 6.898438 C 17.5 6.800781 18.101563 6.5 18.601563 6.199219 C 18.398438 6.898438 17.898438 7.398438 17.300781 7.800781 C 17.898438 7.699219 18.398438 7.601563 19 7.300781 C 18.601563 7.898438 18.101563 8.398438 17.601563 8.800781 Z "/>
</g>
</svg>
