<?xml version="1.0"?>
<svg xmlns="http://www.w3.org/2000/svg" viewBox="0 0 50 50" width="100px" height="100px">
    <path d="M 12 3 C 7.04 3 3 7.04 3 12 L 3 25.390625 L 16.449219 32.109375 C 16.939219 32.349375 17.140625 32.949219 16.890625 33.449219 C 16.720625 33.799219 16.37 34 16 34 C 15.85 34 15.700781 33.970625 15.550781 33.890625 L 3 27.619141 L 3 38 C 3 42.96 7.04 47 12 47 L 38 47 C 42.96 47 47 42.96 47 38 L 47 12 C 47 7.04 42.96 3 38 3 L 12 3 z M 31.5 9 C 36.74 9 41 13.26 41 18.5 C 41 23.74 36.74 28 31.5 28 C 30.4 28 29.340078 27.819219 28.330078 27.449219 L 23.580078 31.029297 C 23.860078 31.819297 24 32.65 24 33.5 C 24 37.64 20.64 41 16.5 41 C 12.36 41 9 37.64 9 33.5 C 9 33.28 9.0095312 33.069375 9.0195312 32.859375 L 14.660156 35.679688 C 15.080156 35.889688 15.54 36 16 36 C 17.14 36 18.169688 35.359844 18.679688 34.339844 C 19.419687 32.859844 18.819844 31.060312 17.339844 30.320312 L 11.890625 27.589844 C 13.160625 26.589844 14.76 26 16.5 26 C 17.4 26 18.289141 26.160703 19.119141 26.470703 L 22.570312 21.75 C 22.190313 20.71 22 19.62 22 18.5 C 22 13.26 26.26 9 31.5 9 z M 31.5 13 C 28.474279 13 26 15.474279 26 18.5 C 26 21.525721 28.474279 24 31.5 24 C 34.525721 24 37 21.525721 37 18.5 C 37 15.474279 34.525721 13 31.5 13 z M 31.5 15 C 33.444841 15 35 16.555159 35 18.5 C 35 20.444841 33.444841 22 31.5 22 C 29.555159 22 28 20.444841 28 18.5 C 28 16.555159 29.555159 15 31.5 15 z"/>
</svg>
