<?xml version="1.0" encoding="utf-8"?>
<!-- Generator: Adobe Illustrator 22.0.1, SVG Export Plug-In . SVG Version: 6.00 Build 0)  -->
<svg version="1.1" id="Layer_1" xmlns="http://www.w3.org/2000/svg" xmlns:xlink="http://www.w3.org/1999/xlink" x="0px" y="0px"
	 viewBox="0 0 808 154" style="enable-background:new 0 0 808 154;" xml:space="preserve">
<g>
	<path d="M143.4,85.7v-9.9c0-2.7-1-5.1-3-7.1c-2-2-4.3-3-7.1-3h-10c-5.9,0-9.2,3.3-9.9,10h-10c1.5-13.4,8.2-20.1,20-20.1h20.1
		c5.5,0,10.2,2,14.1,5.9c3.9,4,5.9,8.7,5.9,14.1v50h-20v-10c-0.8,6.7-4.1,10-10,10h-10c-5.5,0-10.2-2-14.1-5.9
		c-3.9-3.9-5.9-8.6-5.9-14.1v-0.1c0-5.5,2-10.2,5.9-14.1c3.9-3.9,8.6-5.9,14.1-5.9H143.4z M143.4,95.7h-10c-2.8,0-5.1,1-7.1,2.9
		c-2,2-3,4.3-3,7v0.1c0,2.7,1,5,2.9,7c2,2,4.3,3,7.1,3c2.8,0,5.1-1,7.1-3c2-2,2.9-4.3,2.9-7V95.7z"/>
	<path d="M243.3,125.7h-20v-50c0-2.7-1-5.1-3-7.1c-2-2-4.3-3-7.1-3c-2.8,0-5.1,1-7.1,3s-3,4.3-3,7.1v50h-20v-70h20v10
		c0.4-3.4,1.4-5.9,3.1-7.5c1.7-1.7,4-2.5,6.9-2.5h10c6.8,0,11.8,2.4,15,7.1c1.6-2.4,3.6-4.1,6.1-5.3c2.5-1.2,5.5-1.8,8.9-1.8h9.9
		c5.5,0,10.2,2,14.1,5.9c4,3.9,5.9,8.6,5.9,14.2v50h-20.1v-50c0-2.7-1-5.1-3-7.1c-2-2-4.3-3-7-3c-2.8,0-5.1,1-7.1,3s-3,4.3-3,7.1
		V125.7z"/>
	<path d="M363.3,95.7h-40v10c0,2.7,1,5,2.9,7c2,2,4.3,3,7.1,3h10c6.6,0,9.9-3.3,9.9-9.9h10c-1.6,13.3-8.2,20-20,20h-20.1
		c-5.5,0-10.2-2-14.1-5.9c-3.9-3.9-5.9-8.6-5.9-14.1v-30c0-5.5,2-10.3,5.9-14.2c3.9-3.9,8.6-5.9,14.1-5.9h20.1
		c5.5,0,10.2,2,14.1,5.9c3.9,4,5.9,8.7,5.9,14.1V95.7z M323.3,85.7h20.1v-9.9c0-2.7-1-5.1-3-7.1c-2-2-4.3-3-7.1-3
		c-2.8,0-5.1,1-7.1,3s-3,4.3-3,7.1V85.7z"/>
	<path d="M383.3,125.7v-90h50v10h-30v30h20.1v9.9h-20.1v40H383.3z"/>
	<path d="M473.3,125.7h-20v-70h20v20.1c0.8-6.7,2.8-11.7,6.2-15c3.3-3.3,8-5,13.9-5h9.9v20.1h-20c-2.8,0-5.1,1-7.1,2.9
		c-2,2-3,4.3-3,7V125.7z"/>
	<path d="M553.3,85.7v-9.9c0-2.7-1-5.1-3-7.1s-4.3-3-7.1-3h-10c-5.9,0-9.2,3.3-9.9,10h-10c1.5-13.4,8.2-20.1,20-20.1h20.1
		c5.5,0,10.2,2,14.1,5.9c3.9,4,5.9,8.7,5.9,14.1v50h-20v-10c-0.8,6.7-4.1,10-10,10h-10c-5.5,0-10.2-2-14.1-5.9
		c-3.9-3.9-5.9-8.6-5.9-14.1v-0.1c0-5.5,2-10.2,5.9-14.1c3.9-3.9,8.6-5.9,14.1-5.9H553.3z M553.3,95.7h-10c-2.8,0-5.1,1-7.1,2.9
		c-2,2-3,4.3-3,7v0.1c0,2.7,1,5,2.9,7s4.3,3,7.1,3s5.1-1,7.1-3s2.9-4.3,2.9-7V95.7z"/>
	<path d="M653.3,125.7h-20v-50c0-2.7-1-5.1-3-7.1s-4.3-3-7.1-3c-2.8,0-5.1,1-7.1,3s-3,4.3-3,7.1v50h-20v-70h20v10
		c0.4-3.4,1.4-5.9,3.1-7.5c1.7-1.7,4-2.5,6.9-2.5h10c6.8,0,11.8,2.4,15,7.1c1.6-2.4,3.6-4.1,6.1-5.3s5.5-1.8,8.9-1.8h9.9
		c5.5,0,10.2,2,14.1,5.9c4,3.9,5.9,8.6,5.9,14.2v50h-20.1v-50c0-2.7-1-5.1-3-7.1c-2-2-4.3-3-7-3c-2.8,0-5.1,1-7.1,3s-3,4.3-3,7.1
		V125.7z"/>
	<path d="M773.3,95.7h-40v10c0,2.7,1,5,2.9,7s4.3,3,7.1,3h10c6.6,0,9.9-3.3,9.9-9.9h10c-1.6,13.3-8.2,20-20,20h-20.1
		c-5.5,0-10.2-2-14.1-5.9c-3.9-3.9-5.9-8.6-5.9-14.1v-30c0-5.5,2-10.3,5.9-14.2c3.9-3.9,8.6-5.9,14.1-5.9h20.1
		c5.5,0,10.2,2,14.1,5.9c3.9,4,5.9,8.7,5.9,14.1V95.7z M733.2,85.7h20.1v-9.9c0-2.7-1-5.1-3-7.1s-4.3-3-7.1-3c-2.8,0-5.1,1-7.1,3
		s-3,4.3-3,7.1V85.7z"/>
</g>
<path d="M42,70h14v28.1c-0.4,8.8-5.1,13.5-14,13.9c-3.8,0-7.1-1.4-9.9-4.1c-2.7-2.7-4.1-6-4.1-9.8V27.9c0-3.8,1.4-7.1,4.1-9.8
	c2.8-2.7,6.1-4.1,9.9-4.1h752V0H28C20.1,0,13.5,2.8,8.1,8.3C2.7,13.9,0,20.4,0,28V98c0,7.7,2.7,14.2,8.2,19.7
	c5.5,5.5,12.1,8.2,19.7,8.2H56c6.7,0,13-2.3,19-7c6-4.7,9-11.7,9-20.9V56H42V70z"/>
<path d="M794,0c-7.7,0-14,6.3-14,14h14v14c7.7,0,14-6.3,14-14S801.7,0,794,0z"/>
<g>
	<path d="M787,14c3.9,0,7,3.1,7,7v-7H787z"/>
</g>
<path d="M808,140c0-7.7-6.3-14-14-14v14h-14c0,7.7,6.3,14,14,14S808,147.7,808,140z"/>
<g>
	<path d="M794,133c0,3.9-3.1,7-7,7h7V133z"/>
</g>
<rect x="794" y="14" width="14" height="126"/>
<polygon points="0,154 794,154 794,140 14,140 "/>
</svg>
