<?xml version="1.0" encoding="UTF-8" standalone="no"?>
<svg
   xmlns:dc="http://purl.org/dc/elements/1.1/"
   xmlns:cc="http://creativecommons.org/ns#"
   xmlns:rdf="http://www.w3.org/1999/02/22-rdf-syntax-ns#"
   xmlns:svg="http://www.w3.org/2000/svg"
   xmlns="http://www.w3.org/2000/svg"
   viewBox="0 0 422.22668 350.50668"
   height="350.50668"
   width="422.22668"
   xml:space="preserve"
   id="svg2"
   version="1.1"><metadata
     id="metadata8"><rdf:RDF><cc:Work
         rdf:about=""><dc:format>image/svg+xml</dc:format><dc:type
           rdf:resource="http://purl.org/dc/dcmitype/StillImage" /></cc:Work></rdf:RDF></metadata><defs
     id="defs6"><clipPath
       id="clipPath40"
       clipPathUnits="userSpaceOnUse"><path
         style="clip-rule:evenodd"
         id="path38"
         d="m 1172.98,1298.3 c -181.664,-63.01 -377.257,-72.12 -418.136,-70.31 136.269,-113.64 379.076,-328.068 779.336,-205.64 -73.1,19.87 -245.52,86.32 -361.2,275.95" /></clipPath><clipPath
       id="clipPath46"
       clipPathUnits="userSpaceOnUse"><path
         id="path44"
         d="M 0,0 H 3852.15 V 3497.16 H 0 Z" /></clipPath></defs><g
     transform="matrix(1.3333333,0,0,-1.3333333,0,350.50667)"
     id="g10"><g
       transform="scale(0.1)"
       id="g12"><path
         id="path14"
         style="fill:#099cec;fill-opacity:1;fill-rule:evenodd;stroke:none"
         d="m 1269.2,2049.83 h -244.93 v -222.67 h 244.93 v 222.67" /><path
         id="path16"
         style="fill:#099cec;fill-opacity:1;fill-rule:evenodd;stroke:none"
         d="M 979.734,2049.83 H 734.805 v -222.67 h 244.929 v 222.67" /><path
         id="path18"
         style="fill:#099cec;fill-opacity:1;fill-rule:evenodd;stroke:none"
         d="m 1558.67,2049.83 h -244.93 v -222.67 h 244.93 v 222.67" /><path
         id="path20"
         style="fill:#099cec;fill-opacity:1;fill-rule:evenodd;stroke:none"
         d="m 1848.14,2049.83 h -244.93 v -222.67 h 244.93 v 222.67" /><path
         id="path22"
         style="fill:#099cec;fill-opacity:1;fill-rule:evenodd;stroke:none"
         d="m 2137.61,2049.83 h -244.93 v -222.67 h 244.93 v 222.67" /><path
         id="path24"
         style="fill:#099cec;fill-opacity:1;fill-rule:evenodd;stroke:none"
         d="m 1269.2,2317.02 h -244.93 v -222.66 h 244.93 v 222.66" /><path
         id="path26"
         style="fill:#099cec;fill-opacity:1;fill-rule:evenodd;stroke:none"
         d="m 1558.67,2317.02 h -244.93 v -222.66 h 244.93 v 222.66" /><path
         id="path28"
         style="fill:#099cec;fill-opacity:1;fill-rule:evenodd;stroke:none"
         d="m 1848.14,2317.02 h -244.93 v -222.66 h 244.93 v 222.66" /><path
         id="path30"
         style="fill:#099cec;fill-opacity:1;fill-rule:evenodd;stroke:none"
         d="m 1848.14,2584.23 h -244.93 v -222.67 h 244.93 v 222.67" /><path
         id="path32"
         style="fill:#099cec;fill-opacity:1;fill-rule:evenodd;stroke:none"
         d="m 2867.14,1981.08 c -50.27,33.84 -182.34,48.28 -278.38,22.42 -5.15,95.66 -54.49,176.27 -144.72,246.57 l -33.41,22.42 -22.27,-33.62 c -43.75,-66.42 -62.18,-154.91 -55.66,-235.37 5.16,-49.56 22.39,-105.29 55.66,-145.71 -25.49,-19.81 -104.72,-58.08 -211.53,-56.04 H 584.762 c -28.313,-168.12 20.168,-806.98 757.068,-806.98 547.07,0 996.58,246.02 1202.4,762.15 67.73,-1.11 246.52,-12.14 334.01,156.92 2.12,2.84 22.26,44.82 22.26,44.82 l -33.36,22.42" /><g
         id="g34"><g
           clip-path="url(#clipPath40)"
           id="g36"><g
             clip-path="url(#clipPath46)"
             id="g42"><path
               id="path48"
               style="fill:#ffffff;fill-opacity:1;fill-rule:nonzero;stroke:none"
               d="m 643.512,874.398 h 1002 v 535.23 h -1002 z" /></g></g></g><path
         id="path50"
         style="fill:#066da5;fill-opacity:1;fill-rule:evenodd;stroke:none"
         d="m 1152.69,1337.53 c -87.4,-49.88 -188.71,-77.9 -296.147,-77.9 -54.449,0 -107.188,7.24 -157.367,20.81 31.781,-53.42 31.781,-53.42 31.781,-53.42 40.625,-8.01 82.602,-12.22 125.586,-12.22 115.785,0 223.777,30.26 317.857,83.5 -7.79,12.89 -15.03,25.78 -21.71,39.23" /><path
         id="path52"
         style="fill:#ffffff;fill-opacity:1;fill-rule:evenodd;stroke:none"
         d="m 1322.13,1366.59 c 42.75,0 77.41,34.9 77.41,77.94 0,43.04 -34.66,77.93 -77.41,77.93 -42.76,0 -77.42,-34.89 -77.42,-77.93 0,-43.04 34.66,-77.94 77.42,-77.94" /><path
         id="path54"
         style="fill:#4d5c64;fill-opacity:1;fill-rule:nonzero;stroke:none"
         d="m 1333.78,1466.42 c 0,7.14 3.53,13.22 8.69,17.33 -6.05,3.14 -12.83,5.08 -20.12,5.08 -24.43,0 -44.24,-19.93 -44.24,-44.53 0,-24.59 19.81,-44.53 44.24,-44.53 24.43,0 44.24,19.94 44.24,44.53 l -0.26,2.56 c -3.12,-1.67 -6.51,-2.85 -10.29,-2.85 -12.29,0 -22.26,10.03 -22.26,22.41" /><path
         id="path56"
         style="fill:#f2f2f2;fill-opacity:1;fill-rule:nonzero;stroke:none"
         d="m 2860.63,1985.1 c -34.39,19.54 -97.08,31.64 -161.81,31.64 -37.72,0 -76.14,-4.11 -110.06,-13.24 -0.1,2.02 -0.23,4.03 -0.38,6.04 30.56,8.07 65.64,11.68 100.66,11.68 69.63,0 138.95,-14.28 171.59,-36.12" /><path
         id="path58"
         style="fill:#f2f2f2;fill-opacity:1;fill-rule:nonzero;stroke:none"
         d="m 1452.59,1001.48 c 26.43,5.41 53.64,12.32 81.59,20.87 -34.23,9.31 -90.26,28.83 -152.03,66.44 508.94,12.39 881.62,273.62 1179.52,890.2 l 20.43,28.81 c 2.07,0.6 4.17,1.18 6.28,1.74 0.15,-2.01 0.28,-4.02 0.38,-6.04 33.92,9.13 72.34,13.24 110.06,13.24 64.73,0 127.42,-12.1 161.81,-31.64 0.03,-0.02 0.06,-0.04 0.1,-0.06 l 33.63,-22.8 -16.93,-35.85 c -77.23,-156.5 -244.88,-168.28 -323.38,-168.28 -6.39,0 -12.2,0.08 -17.31,0.16 -192.42,-476.52 -592.22,-722.3 -1084.15,-756.79" /><path
         id="path60"
         style="fill:#0994e0;fill-opacity:1;fill-rule:nonzero;stroke:none"
         d="m 1452.59,1001.48 c 26.43,5.41 53.64,12.32 81.59,20.87 -34.23,9.31 -90.26,28.83 -152.03,66.44 508.94,12.39 881.62,273.62 1179.52,890.2 l 20.43,28.81 c 2.07,0.6 4.17,1.18 6.28,1.74 0.15,-2.01 0.28,-4.02 0.38,-6.04 33.92,9.13 72.34,13.24 110.06,13.24 64.73,0 127.42,-12.1 161.81,-31.64 0.03,-0.02 0.06,-0.04 0.1,-0.06 l 33.63,-22.8 -16.93,-35.85 c -77.23,-156.5 -244.88,-168.28 -323.38,-168.28 -6.39,0 -12.2,0.08 -17.31,0.16 -192.42,-476.52 -592.22,-722.3 -1084.15,-756.79" /><path
         id="path62"
         style="fill:#f2f2f2;fill-opacity:1;fill-rule:nonzero;stroke:none"
         d="m 1067.99,1027.85 c -151.615,39.11 -259.424,112.24 -335.662,198.9 7.692,-1.5 15.438,-2.86 23.223,-4.08 68.144,-77.39 160.887,-143.62 286.089,-184.42 8.62,-3.6 17.42,-7.08 26.35,-10.4" /><path
         id="path64"
         style="fill:#f2f2f2;fill-opacity:1;fill-rule:nonzero;stroke:none"
         d="m 1041.64,1038.25 c -125.202,40.8 -217.945,107.03 -286.089,184.42 2.304,-0.37 4.617,-0.72 6.926,-1.06 66.812,-55.84 158.035,-132.75 279.163,-183.36" /><path
         id="path66"
         style="fill:#0994e0;fill-opacity:1;fill-rule:nonzero;stroke:none"
         d="m 1041.64,1038.25 c -125.202,40.8 -217.945,107.03 -286.089,184.42 2.304,-0.37 4.617,-0.72 6.926,-1.06 66.812,-55.84 158.035,-132.75 279.163,-183.36" /><path
         id="path68"
         style="fill:#f2f2f2;fill-opacity:1;fill-rule:nonzero;stroke:none"
         d="M 728.504,1231.14 C 561.402,1424.78 549.02,1683.71 555.836,1783.63 h 26.398 c -11.781,-103.25 2.825,-324.68 130.637,-506.72 -4.586,1.12 -9.152,2.3 -13.695,3.53 18.25,-30.68 26.019,-43.74 29.328,-49.3" /><path
         id="path70"
         style="fill:#f2f2f2;fill-opacity:1;fill-rule:nonzero;stroke:none"
         d="m 844.105,1259.76 c -45.14,0.91 -89.046,6.81 -131.234,17.15 -127.812,182.04 -142.418,403.47 -130.637,506.72 h 62.668 c 21.075,-215.04 71.039,-399.25 199.203,-523.87" /><path
         id="path72"
         style="fill:#0994e0;fill-opacity:1;fill-rule:nonzero;stroke:none"
         d="m 844.105,1259.76 c -45.14,0.91 -89.046,6.81 -131.234,17.15 -127.812,182.04 -142.418,403.47 -130.637,506.72 h 62.668 c 21.075,-215.04 71.039,-399.25 199.203,-523.87" /><path
         id="path74"
         style="fill:#f2f2f2;fill-opacity:1;fill-rule:nonzero;stroke:none"
         d="m 1329.89,997.238 c -99.31,0 -186.08,11.052 -261.9,30.612 -8.93,3.32 -17.73,6.8 -26.35,10.4 -121.128,50.61 -212.351,127.52 -279.163,183.36 30.707,-4.48 62.105,-6.81 94.066,-6.81 13.187,0 26.277,0.39 39.254,1.16 109.153,-80.4 263.913,-126.62 483.903,-127.23 0.81,0.02 1.64,0.04 2.45,0.06 61.77,-37.61 117.8,-57.13 152.03,-66.44 -27.95,-8.55 -55.16,-15.46 -81.59,-20.87 -40.32,-2.832 -81.21,-4.242 -122.7,-4.242" /><path
         id="path76"
         style="fill:#f2f2f2;fill-opacity:1;fill-rule:nonzero;stroke:none"
         d="m 1329.89,997.238 c -99.31,0 -186.08,11.052 -261.9,30.612 -8.93,3.32 -17.73,6.8 -26.35,10.4 -121.128,50.61 -212.351,127.52 -279.163,183.36 30.707,-4.48 62.105,-6.81 94.066,-6.81 13.187,0 26.277,0.39 39.254,1.16 109.153,-80.4 263.913,-126.62 483.903,-127.23 0.81,0.02 1.64,0.04 2.45,0.06 61.77,-37.61 117.8,-57.13 152.03,-66.44 -27.95,-8.55 -55.16,-15.46 -81.59,-20.87 -40.32,-2.832 -81.21,-4.242 -122.7,-4.242" /><path
         id="path78"
         style="fill:#f2f2f2;fill-opacity:1;fill-rule:nonzero;stroke:none"
         d="m 856.543,1214.8 c -31.961,0 -63.359,2.33 -94.066,6.81 -2.309,0.34 -4.622,0.69 -6.926,1.06 -7.785,1.22 -15.531,2.58 -23.223,4.08 -1.285,1.47 -2.555,2.92 -3.824,4.39 -3.309,5.56 -11.078,18.62 -29.328,49.3 4.543,-1.23 9.109,-2.41 13.695,-3.53 42.188,-10.34 86.094,-16.24 131.234,-17.15 15.973,-15.54 33.188,-30.17 51.692,-43.8 -12.977,-0.77 -26.067,-1.16 -39.254,-1.16" /><path
         id="path80"
         style="fill:#06679d;fill-opacity:1;fill-rule:nonzero;stroke:none"
         d="m 856.543,1214.8 c -31.961,0 -63.359,2.33 -94.066,6.81 -2.309,0.34 -4.622,0.69 -6.926,1.06 -7.785,1.22 -15.531,2.58 -23.223,4.08 -1.285,1.47 -2.555,2.92 -3.824,4.39 -3.309,5.56 -11.078,18.62 -29.328,49.3 4.543,-1.23 9.109,-2.41 13.695,-3.53 42.188,-10.34 86.094,-16.24 131.234,-17.15 15.973,-15.54 33.188,-30.17 51.692,-43.8 -12.977,-0.77 -26.067,-1.16 -39.254,-1.16" /><path
         id="path82"
         style="fill:#066da5;fill-opacity:1;fill-rule:nonzero;stroke:none"
         d="m 779.336,1871.69 h 22.269 v 133.6 h -22.269 v -133.6" /><path
         id="path84"
         style="fill:#066da5;fill-opacity:1;fill-rule:nonzero;stroke:none"
         d="m 846.137,1871.69 h 22.265 v 133.6 h -22.265 v -133.6" /><path
         id="path86"
         style="fill:#066da5;fill-opacity:1;fill-rule:nonzero;stroke:none"
         d="m 912.938,1871.69 h 22.265 v 133.6 h -22.265 v -133.6" /><path
         id="path88"
         style="fill:#066da5;fill-opacity:1;fill-rule:nonzero;stroke:none"
         d="m 1068.8,1871.69 h 22.27 v 133.6 h -22.27 v -133.6" /><path
         id="path90"
         style="fill:#066da5;fill-opacity:1;fill-rule:nonzero;stroke:none"
         d="m 1135.6,1871.69 h 22.27 v 133.6 h -22.27 v -133.6" /><path
         id="path92"
         style="fill:#066da5;fill-opacity:1;fill-rule:nonzero;stroke:none"
         d="m 1202.41,1871.69 h 22.26 v 133.6 h -22.26 v -133.6" /><path
         id="path94"
         style="fill:#066da5;fill-opacity:1;fill-rule:nonzero;stroke:none"
         d="m 1358.27,1871.69 h 22.27 v 133.6 h -22.27 v -133.6" /><path
         id="path96"
         style="fill:#066da5;fill-opacity:1;fill-rule:nonzero;stroke:none"
         d="m 1425.07,1871.69 h 22.27 v 133.6 h -22.27 v -133.6" /><path
         id="path98"
         style="fill:#066da5;fill-opacity:1;fill-rule:nonzero;stroke:none"
         d="m 1491.87,1871.69 h 22.27 v 133.6 h -22.27 v -133.6" /><path
         id="path100"
         style="fill:#066da5;fill-opacity:1;fill-rule:nonzero;stroke:none"
         d="m 1647.74,1871.69 h 22.27 v 133.6 h -22.27 v -133.6" /><path
         id="path102"
         style="fill:#066da5;fill-opacity:1;fill-rule:nonzero;stroke:none"
         d="m 1714.54,1871.69 h 22.27 v 133.6 h -22.27 v -133.6" /><path
         id="path104"
         style="fill:#066da5;fill-opacity:1;fill-rule:nonzero;stroke:none"
         d="m 1781.34,1871.69 h 22.27 v 133.6 h -22.27 v -133.6" /><path
         id="path106"
         style="fill:#066da5;fill-opacity:1;fill-rule:nonzero;stroke:none"
         d="m 1937.21,1871.69 h 22.27 v 133.6 h -22.27 v -133.6" /><path
         id="path108"
         style="fill:#066da5;fill-opacity:1;fill-rule:nonzero;stroke:none"
         d="m 2004.01,1871.69 h 22.26 v 133.6 h -22.26 v -133.6" /><path
         id="path110"
         style="fill:#066da5;fill-opacity:1;fill-rule:nonzero;stroke:none"
         d="m 2070.81,1871.69 h 22.27 v 133.6 h -22.27 v -133.6" /><path
         id="path112"
         style="fill:#066da5;fill-opacity:1;fill-rule:nonzero;stroke:none"
         d="m 1135.6,2138.89 h 22.27 v 133.6 h -22.27 v -133.6" /><path
         id="path114"
         style="fill:#066da5;fill-opacity:1;fill-rule:nonzero;stroke:none"
         d="m 1202.41,2138.89 h 22.26 v 133.6 h -22.26 v -133.6" /><path
         id="path116"
         style="fill:#066da5;fill-opacity:1;fill-rule:nonzero;stroke:none"
         d="m 1358.27,2138.89 h 22.27 v 133.6 h -22.27 v -133.6" /><path
         id="path118"
         style="fill:#066da5;fill-opacity:1;fill-rule:nonzero;stroke:none"
         d="m 1425.07,2138.89 h 22.27 v 133.6 h -22.27 v -133.6" /><path
         id="path120"
         style="fill:#066da5;fill-opacity:1;fill-rule:nonzero;stroke:none"
         d="m 1491.87,2138.89 h 22.27 v 133.6 h -22.27 v -133.6" /><path
         id="path122"
         style="fill:#066da5;fill-opacity:1;fill-rule:nonzero;stroke:none"
         d="m 1647.74,2138.89 h 22.27 v 133.6 h -22.27 v -133.6" /><path
         id="path124"
         style="fill:#066da5;fill-opacity:1;fill-rule:nonzero;stroke:none"
         d="m 1714.54,2138.89 h 22.27 v 133.6 h -22.27 v -133.6" /><path
         id="path126"
         style="fill:#066da5;fill-opacity:1;fill-rule:nonzero;stroke:none"
         d="m 1781.34,2138.89 h 22.27 v 133.6 h -22.27 v -133.6" /><path
         id="path128"
         style="fill:#066da5;fill-opacity:1;fill-rule:nonzero;stroke:none"
         d="m 1714.54,2406.09 h 22.27 v 133.61 h -22.27 v -133.61" /><path
         id="path130"
         style="fill:#066da5;fill-opacity:1;fill-rule:nonzero;stroke:none"
         d="m 1647.74,2406.09 h 22.27 v 133.61 h -22.27 v -133.61" /><path
         id="path132"
         style="fill:#066da5;fill-opacity:1;fill-rule:nonzero;stroke:none"
         d="m 1781.34,2406.09 h 22.27 v 133.61 h -22.27 v -133.61" /><path
         id="path134"
         style="fill:#066da5;fill-opacity:1;fill-rule:nonzero;stroke:none"
         d="m 1068.8,2138.89 h 22.27 v 133.6 h -22.27 v -133.6" /><path
         id="path136"
         style="fill:#066da5;fill-opacity:1;fill-rule:nonzero;stroke:none"
         d="m 422.645,204.352 c -8.774,-20.262 -20.731,-38.032 -35.872,-53.321 -15.144,-15.32 -32.929,-27.461 -53.328,-36.371 -20.418,-8.949 -42.265,-13.398 -65.554,-13.398 -23.606,0 -45.602,4.449 -66.024,13.398 -20.418,8.91 -38.117,20.961 -53.078,36.121 -15.012,15.141 -26.883,32.91 -35.648,53.328 -8.778,20.403 -13.1605,42.11 -13.1605,65.071 0,22.961 4.3825,44.64 13.1605,65.058 8.765,20.403 20.636,38.184 35.648,53.352 14.961,15.121 32.66,27.16 53.078,36.109 20.422,8.91 42.418,13.391 66.024,13.391 23.289,0 45.136,-4.481 65.554,-13.391 20.399,-8.949 38.184,-21.058 53.328,-36.347 15.141,-15.332 27.098,-33.102 35.872,-53.364 8.777,-20.258 13.16,-41.847 13.16,-64.808 0,-22.961 -4.383,-44.578 -13.16,-64.828 z m 62.925,562.347 c -14.359,0 -26.25,-4.719 -35.648,-14.117 -9.418,-9.41 -14.117,-21.281 -14.117,-35.621 V 478.238 C 387.328,517.469 331.352,537.07 267.891,537.07 193.902,537.07 130.75,510.922 78.4453,458.621 26.1406,406.289 0,343.172 0,269.18 0,195.18 26.1406,132.039 78.4453,79.7305 130.75,27.4297 193.902,1.28906 267.891,1.28906 c 73.347,0 136.5,26.14064 189.449,78.44144 52.305,51.6795 78.445,114.8285 78.445,189.4495 v 447.781 c 0,14.34 -4.859,26.211 -14.59,35.621 -9.726,9.398 -21.597,14.117 -35.625,14.117" /><path
         id="path138"
         style="fill:#066da5;fill-opacity:1;fill-rule:nonzero;stroke:none"
         d="m 1006.59,204.352 c -8.774,-20.262 -20.75,-38.032 -35.895,-53.321 -15.14,-15.32 -32.933,-27.461 -53.328,-36.371 -20.422,-8.949 -42.262,-13.398 -65.551,-13.398 -23.605,0 -45.605,4.449 -66,13.398 -20.421,8.91 -38.121,20.961 -53.105,36.121 -15.008,15.141 -26.875,32.91 -35.652,53.328 -8.77,20.403 -13.157,42.11 -13.157,65.071 0,22.961 4.387,44.64 13.157,65.058 8.777,20.403 20.644,38.184 35.652,53.352 14.984,15.121 32.684,27.16 53.105,36.109 20.395,8.91 42.395,13.391 66,13.391 23.289,0 45.129,-4.481 65.551,-13.391 20.395,-8.949 38.188,-21.058 53.328,-36.347 15.145,-15.332 27.121,-33.102 35.895,-53.364 8.75,-20.258 13.14,-41.847 13.14,-64.808 0,-22.961 -4.39,-44.578 -13.14,-64.828 z m 34.67,254.269 c -52.951,52.301 -116.1,78.449 -189.444,78.449 -73.996,0 -137.144,-26.148 -189.425,-78.449 -52.328,-52.332 -78.465,-115.449 -78.465,-189.441 0,-74 26.137,-137.141 78.465,-189.4495 C 714.672,27.4297 777.82,1.28906 851.816,1.28906 c 73.344,0 136.493,26.14064 189.444,78.44144 52.3,51.6795 78.47,114.8285 78.47,189.4495 -0.34,36.98 -6.95,71.269 -19.86,102.84 -12.92,31.582 -32.44,60.441 -58.61,86.601" /><path
         id="path140"
         style="fill:#066da5;fill-opacity:1;fill-rule:nonzero;stroke:none"
         d="m 2137.34,487.32 c 0,6.711 -1.33,13.071 -4.05,19.129 -2.72,6.063 -6.3,11.403 -10.78,16.031 -4.47,4.61 -9.73,8.2 -15.79,10.782 -6.05,2.539 -12.6,3.808 -19.61,3.808 -9.89,0 -18.82,-2.57 -26.79,-7.64 L 1774.26,343.32 v 373.149 c 0,14.019 -4.88,25.89 -14.61,35.652 -9.7,9.711 -21.44,14.578 -35.16,14.578 -14.05,0 -25.92,-4.867 -35.62,-14.578 -9.74,-9.762 -14.61,-21.633 -14.61,-35.652 V 51.5195 c 0,-13.7187 4.87,-25.5507 14.61,-35.4101 9.7,-9.87893 21.57,-14.82034 35.62,-14.82034 13.72,0 25.46,4.94141 35.16,14.82034 9.73,9.8594 14.61,21.6914 14.61,35.4101 V 224.219 l 58.36,38.25 221.02,-248.2698 c 8.91,-8.61717 20.08,-12.91014 33.47,-12.91014 7.01,0 13.56,1.26953 19.61,3.82032 6.06,2.53906 11.32,6.12892 15.79,10.76172 4.48,4.6094 8.06,9.9805 10.78,16.0273 2.72,6.043 4.05,12.4414 4.05,19.1211 0,13.0821 -4.63,24.7188 -13.87,34.9414 l -205.7,231.5271 200.44,130.133 c 12.74,8.617 19.13,21.82 19.13,39.699" /><path
         id="path142"
         style="fill:#066da5;fill-opacity:1;fill-rule:nonzero;stroke:none"
         d="m 1315.68,388.051 c 15.29,15.14 33.15,27.097 53.57,35.879 20.42,8.769 42.26,13.16 65.55,13.16 21.04,0 40.48,-3.52 58.36,-10.508 17.84,-7.043 34.92,-17.41 51.18,-31.113 9.57,-7.66 20.41,-11.489 32.52,-11.489 14.36,0 26.23,4.79 35.65,14.36 9.4,9.582 14.12,21.531 14.12,35.879 0,14.98 -5.74,27.582 -17.23,37.801 -49.12,43.359 -107.31,65.05 -174.6,65.05 -74.01,0 -137.16,-26.148 -189.44,-78.449 -52.31,-52.332 -78.47,-115.449 -78.47,-189.441 0,-74 26.16,-137.141 78.47,-189.4495 52.28,-52.3008 115.43,-78.44144 189.44,-78.44144 66.96,0 125.17,21.67974 174.6,65.05074 10.53,10.5391 15.78,22.7891 15.78,36.8322 0,14.367 -4.72,26.226 -14.09,35.648 -9.42,9.399 -21.31,14.129 -35.65,14.129 -12.12,-0.347 -22.65,-3.84 -31.57,-10.539 -15.95,-13.711 -32.87,-24.012 -50.71,-30.859 -17.88,-6.86 -37.32,-10.289 -58.36,-10.289 -23.29,0 -45.13,4.386 -65.55,13.16 -20.42,8.769 -38.28,20.726 -53.57,35.867 -15.32,15.152 -27.37,32.941 -36.12,53.352 -8.77,20.398 -13.16,42.25 -13.16,65.539 0,23.261 4.39,45.129 13.16,65.55 8.75,20.391 20.8,38.161 36.12,53.321" /><path
         id="path144"
         style="fill:#066da5;fill-opacity:1;fill-rule:nonzero;stroke:none"
         d="m 3153.27,503.602 c -8.94,8.589 -20.18,15.359 -33.71,20.328 -13.57,4.922 -28.4,8.371 -44.5,10.289 -16.12,1.91 -31.19,2.851 -45.22,2.851 -31.89,0 -61.88,-5.109 -89.93,-15.3 -28.06,-10.219 -54.05,-24.872 -77.98,-44.02 v 9.57 c 0,13.7 -4.86,25.43 -14.59,35.16 -9.71,9.731 -21.47,14.59 -35.16,14.59 -14.05,0 -25.92,-4.859 -35.65,-14.59 -9.71,-9.73 -14.58,-21.46 -14.58,-35.16 V 51.0195 c 0,-13.7109 4.87,-25.4179 14.58,-35.1484 9.73,-9.73047 21.6,-14.58204 35.65,-14.58204 13.69,0 25.45,4.85157 35.16,14.58204 9.73,9.7305 14.59,21.4375 14.59,35.1484 V 269.18 c 0,23.261 4.4,45.129 13.15,65.55 8.78,20.391 20.73,38.161 35.88,53.321 15.16,15.14 32.93,27.097 53.35,35.879 20.39,8.769 42.24,13.16 65.53,13.16 23.6,0 45.45,-3.988 65.55,-11.961 7.95,-3.52 14.99,-5.258 21.04,-5.258 6.99,0 13.54,1.25 19.62,3.828 6.03,2.539 11.32,6.129 15.79,10.762 4.45,4.609 8.04,9.949 10.75,16.027 2.72,6.043 4.07,12.582 4.07,19.621 0,13.7 -4.47,24.871 -13.39,33.493" /><path
         id="path146"
         style="fill:#066da5;fill-opacity:1;fill-rule:nonzero;stroke:none"
         d="m 2289.31,318.941 c 5.08,17.528 12.92,33.528 23.43,48.071 10.53,14.5 22.96,26.949 37.31,37.32 14.37,10.328 30.16,18.418 47.37,24.156 17.21,5.731 34.91,8.602 53.1,8.602 18.18,0 35.78,-2.871 52.84,-8.602 17.06,-5.738 32.71,-13.828 46.88,-24.156 14.2,-10.371 26.65,-22.82 37.31,-37.32 10.72,-14.543 18.75,-30.543 24.18,-48.071 z m 350.66,139.68 c -52.97,52.301 -116.12,78.449 -189.45,78.449 -74.01,0 -137.16,-26.148 -189.44,-78.449 -52.33,-52.332 -78.47,-115.449 -78.47,-189.441 0,-74 26.14,-137.141 78.47,-189.4495 52.28,-52.3008 115.43,-78.44144 189.44,-78.44144 67.27,0 125.64,21.67974 175.09,65.05074 9.57,9.8711 14.36,21.8321 14.36,35.8712 0,14.371 -4.72,26.23 -14.15,35.66 -9.39,9.391 -21.26,14.109 -35.62,14.109 -12.42,-0.332 -23.45,-4.492 -33,-12.441 -15.01,-12.769 -31.28,-22.34 -48.81,-28.699 -17.57,-6.399 -36.82,-9.578 -57.87,-9.578 -18.52,0 -36.29,2.879 -53.37,8.617 -17.04,5.742 -32.68,13.781 -46.87,24.16 -14.18,10.352 -26.55,22.77 -37.05,37.313 -10.54,14.507 -18.53,30.527 -23.92,48.078 h 378.87 c 14,0 25.9,4.699 35.62,14.121 9.74,9.398 14.61,21.277 14.61,35.629 0,36.98 -6.56,71.34 -19.61,103.09 -13.09,31.73 -32.71,60.519 -58.83,86.351" /><path
         id="path148"
         style="fill:#066da5;fill-opacity:1;fill-rule:nonzero;stroke:none"
         d="m 2707.54,1802.16 c -48.74,-17.14 -92.91,-20.98 -159.13,-19.61 -0.66,0.02 -4.8,0.1 -11.58,0.24 l -15.32,0.25 -5.71,-14.32 C 2321,1280.24 1895.63,1020.64 1334.06,1020.64 c -321.02,0 -530.501,121.56 -646.068,328.99 -44.594,80.04 -72.953,169.86 -86.246,261.78 -9.219,63.77 -10.465,125.64 -5.379,171.38 h 93.903 v -0.16 h 289.464 44.536 244.93 44.54 244.93 44.54 244.93 44.54 289.46 v 0.42 c 88.21,1 170.67,28.29 212.06,60.45 l 18.26,14.18 -14.72,17.87 c -27.58,33.5 -45.34,82.58 -50.67,133.74 -6.31,78.04 12.6,160.7 52.08,220.64 l 9.89,14.93 14.22,-9.54 c 86.43,-67.54 130.81,-142.55 135.5,-229.59 l 1.5,-27.57 26.49,7.14 c 86.71,23.34 213.66,11.94 260.25,-19.41 l 17.21,-11.56 c -0.8,-1.63 -1.58,-3.24 -2.67,-5.47 -2.76,-5.62 -5.1,-10.35 -6.9,-13.91 -0.97,-1.93 -1.76,-3.47 -3.92,-7.31 -33.05,-63.86 -81.6,-103.84 -143.18,-125.48 z M 734.805,2049.83 H 979.734 V 1827.62 H 734.805 Z m 289.465,0 h 244.93 v -222.21 h -244.93 z m 0,267.19 h 244.93 v -222.66 h -244.93 z m 289.47,-267.19 h 244.93 v -222.22 l -244.93,0.01 z m 0,267.19 h 244.93 v -222.66 h -244.93 z m 289.47,-267.19 h 244.93 v -222.22 h -244.93 z m 0,267.19 h 244.93 v -222.66 h -244.93 z m 0,267.21 h 244.93 v -222.67 h -244.93 z m 289.47,-534.4 h 244.93 v -222.22 h -244.93 z m 997.13,-143.7 c 2.15,3.57 5.3,9.9 12.01,23.59 2.42,4.96 5,10.27 7.56,15.57 0.9,1.85 1.73,3.58 3.41,7.08 l 8.43,17.56 -49.49,33.25 c -53.48,36 -175.44,49.56 -270.99,31.25 -12.33,90.08 -62.84,168.25 -151.47,237.31 l -52.58,35.29 -34.62,-52.28 c -45.27,-68.73 -66.48,-161.41 -59.33,-249.62 5.26,-50.59 20.9,-99.4 45.98,-138.04 -37.88,-21.12 -100.09,-38.41 -166.58,-39.29 v 266.56 h -289.46 v 222.66 44.54 267.2 h -334.01 v -267.2 H 1313.74 1269.2 979.734 v -267.2 H 690.27 V 1827.62 H 576.992 558.184 l -3.145,-18.67 c -8.672,-51.49 -8.547,-126.62 2.641,-203.99 14.039,-97.1 44.047,-192.14 91.476,-277.26 123.5,-221.67 347.891,-351.899 684.904,-351.899 573.46,0 1012.74,264.769 1217.25,761.859 69.09,-1.24 116.85,3.16 170.92,22.17 71.63,25.18 129.07,72.35 167.58,146.3" /><path
         id="path150"
         style="fill:#066da5;fill-opacity:1;fill-rule:nonzero;stroke:none"
         d="m 2966.2,30.0898 h 3.12 c 3.66,0 6.62,1.2188 6.62,4.1915 0,2.6093 -1.91,4.3476 -6.09,4.3476 -1.74,0 -2.96,-0.168 -3.65,-0.3398 z m -0.18,-16.1796 h -6.62 v 28.5507 c 2.62,0.5196 6.27,0.8789 10.98,0.8789 5.4,0 7.82,-0.8789 9.92,-2.1015 1.55,-1.1992 2.77,-3.4688 2.77,-6.2578 0,-3.1407 -2.44,-5.5821 -5.91,-6.6094 v -0.3594 c 2.78,-1.0429 4.35,-3.1328 5.22,-6.9531 0.88,-4.3477 1.38,-6.0898 2.1,-7.1484 h -7.15 c -0.86,1.0586 -1.39,3.6601 -2.27,6.9804 -0.5,3.1289 -2.25,4.5196 -5.91,4.5196 h -3.13 z m -17.59,14.9804 c 0,-12.7109 9.42,-22.80076 22.29,-22.80076 12.54,0 21.75,10.08986 21.75,22.62106 0,12.711 -9.21,22.9805 -21.93,22.9805 -12.69,0 -22.11,-10.2695 -22.11,-22.8008 z m 51.35,0 C 2999.78,12.6914 2987.08,0 2970.54,0 c -16.36,0 -29.4,12.6914 -29.4,28.8906 0,15.8282 13.04,28.5508 29.4,28.5508 16.54,0 29.24,-12.7226 29.24,-28.5508" /></g></g></svg>