<?xml version="1.0" encoding="utf-8"?>
<!-- Generator: Adobe Illustrator 22.0.1, SVG Export Plug-In . SVG Version: 6.00 Build 0)  -->
<svg version="1.1" id="Layer_1" xmlns="http://www.w3.org/2000/svg" xmlns:xlink="http://www.w3.org/1999/xlink" x="0px" y="0px"
	 viewBox="0 0 360 360" style="enable-background:new 0 0 360 360;" xml:space="preserve">
<path d="M209.5,262.8L180.4,207c-2.3,0.2-4.5,0.3-6.8,0.2c-5.8,0-9.1-0.2-14.7-0.5v56h-39.7V93.4c16.7-1.9,33.6-2.8,50.4-2.8
	c53.2,0,74.2,25.4,74.2,56.7c0,20.3-11,38.5-29.4,49.4l40.1,66L209.5,262.8L209.5,262.8z M174.3,126.1c-5.2-0.1-10.3,0.3-15.4,1.2
	v47.1c4.2,0.5,8.4,0.7,12.6,0.7c18.9,0,31-9.1,31-26.4C202.5,134.5,191.3,126.1,174.3,126.1L174.3,126.1z M322.1,331.5H320v-1.5h6.3
	v1.5H324v6.5h-1.8L322.1,331.5L322.1,331.5z M334,334.9c0-1.1-0.1-2.2-0.1-3.3h0c-0.3,1-0.6,2.1-0.9,3.1l-1,3.1h-1.4l-0.9-3.1
	c-0.3-1-0.5-2.1-0.7-3.1h0c0,1.1-0.1,2.3-0.1,3.3l-0.1,3H327l0.5-8h2.5l0.8,2.7c0.3,0.9,0.5,1.9,0.7,2.9h0c0.2-0.9,0.5-2,0.8-2.9
	l0.9-2.7h2.4l0.4,8h-1.8L334,334.9z"/>
<path d="M0,0v360h360V0H0z M348.2,348.2H11.8V11.8h336.4L348.2,348.2L348.2,348.2z"/>
</svg>
