<?xml version="1.0" encoding="UTF-8" standalone="no"?>
<svg
   xmlns:dc="http://purl.org/dc/elements/1.1/"
   xmlns:cc="http://creativecommons.org/ns#"
   xmlns:rdf="http://www.w3.org/1999/02/22-rdf-syntax-ns#"
   xmlns:svg="http://www.w3.org/2000/svg"
   xmlns="http://www.w3.org/2000/svg"
   viewBox="0 0 300.94666 54.040001"
   height="54.040001"
   width="300.94666"
   xml:space="preserve"
   id="svg2"
   version="1.1"><metadata
     id="metadata8"><rdf:RDF><cc:Work
         rdf:about=""><dc:format>image/svg+xml</dc:format><dc:type
           rdf:resource="http://purl.org/dc/dcmitype/StillImage" /></cc:Work></rdf:RDF></metadata><defs
     id="defs6" /><g
     transform="matrix(1.3333333,0,0,-1.3333333,0,54.04)"
     id="g10"><g
       transform="scale(0.1)"
       id="g12"><path
         id="path14"
         style="fill:#5490ce;fill-opacity:1;fill-rule:nonzero;stroke:none"
         d="M 170.684,0 V 134.453 L 83.8867,202.68 0,135.41 170.684,0" /><path
         id="path16"
         style="fill:#91bfe9;fill-opacity:1;fill-rule:nonzero;stroke:none"
         d="m 83.8867,202.68 86.7973,68.183 V 405.316 L 0,269.902 83.8867,202.68" /><path
         id="path18"
         style="fill:#2d5e9b;fill-opacity:1;fill-rule:nonzero;stroke:none"
         d="M 0,135.41 83.8867,202.68 0,269.902 Z" /><path
         id="path20"
         style="fill:#5490ce;fill-opacity:1;fill-rule:nonzero;stroke:none"
         d="M 219.824,134.453 V 0 l 170.66,135.41 -83.863,67.27 -86.797,-68.227" /><path
         id="path22"
         style="fill:#91bfe9;fill-opacity:1;fill-rule:nonzero;stroke:none"
         d="M 219.824,405.316 V 270.863 l 86.797,-68.183 83.863,67.222 -170.66,135.414" /><path
         id="path24"
         style="fill:#2d5e9b;fill-opacity:1;fill-rule:nonzero;stroke:none"
         d="m 306.621,202.68 83.863,-67.27 v 134.492 z" /><path
         id="path26"
         style="fill:#3c3a3e;fill-opacity:1;fill-rule:nonzero;stroke:none"
         d="m 553.961,195.766 c -10.832,3.976 -19.84,10.218 -27.129,18.804 -7.242,8.551 -10.871,20.36 -10.871,35.414 0,8.692 1.711,16.688 5.152,23.934 3.414,7.242 8.168,13.562 14.231,18.988 6.097,5.422 13.269,9.582 21.574,12.489 8.297,2.902 17.457,4.347 27.516,4.347 13.433,0 24.117,-0.933 32.035,-2.789 7.933,-1.82 15.176,-4.195 21.773,-7.101 3.961,-1.594 7.113,-4.051 9.496,-7.317 2.375,-3.312 3.567,-7.062 3.567,-11.305 0,-5.269 -1.864,-9.765 -5.539,-13.449 -3.696,-3.679 -8.192,-5.539 -13.453,-5.539 -3.176,0 -6.333,0.68 -9.493,1.973 -5.015,2.375 -11.144,4.316 -18.41,5.765 -7.265,1.411 -14.18,2.149 -20.758,2.149 -8.187,0 -14.734,-1.856 -19.621,-5.539 -4.867,-3.668 -7.316,-8.953 -7.316,-15.824 0,-5.278 1.629,-9.477 4.961,-12.676 3.281,-3.16 7.035,-5.391 11.273,-6.723 l 38.781,-12.676 c 13.188,-4.453 23.465,-11.183 30.86,-20.179 7.383,-8.953 11.098,-20.696 11.098,-35.188 0,-8.734 -1.735,-16.832 -5.153,-24.34 -3.437,-7.511 -8.176,-14.121 -14.25,-19.804 -6.078,-5.657 -13.469,-10.075 -22.168,-13.227 -8.695,-3.164 -18.344,-4.765 -28.875,-4.765 -11.89,0 -22.5,1.003 -31.847,2.976 -9.383,1.965 -17.762,4.684 -25.157,8.102 -3.675,1.855 -6.648,4.343 -8.883,7.507 -2.265,3.157 -3.378,6.719 -3.378,10.696 0,5.277 1.925,9.886 5.742,13.871 3.804,3.937 8.508,5.898 14.043,5.898 1.32,0 2.847,-0.258 4.554,-0.769 1.704,-0.524 3.239,-1.051 4.571,-1.602 5.281,-2.898 11.261,-5.129 17.98,-6.73 6.731,-1.559 14.453,-2.34 23.16,-2.34 19.243,0 28.895,6.836 28.895,20.547 0,7.398 -2.59,12.676 -7.719,15.832 -5.164,3.203 -11.43,6.062 -18.801,8.742 l -32.441,11.848" /><path
         id="path28"
         style="fill:#3c3a3e;fill-opacity:1;fill-rule:nonzero;stroke:none"
         d="m 912.488,238.09 c 0,4.758 -0.925,9.18 -2.781,13.273 -1.855,4.082 -4.273,7.649 -7.324,10.696 -3.028,3.015 -6.598,5.464 -10.664,7.32 -4.086,1.828 -8.531,2.75 -13.274,2.75 -6.086,0 -12.019,-0.922 -17.816,-2.75 -5.774,-1.856 -11.199,-4.344 -16.219,-7.5 V 121.777 c 0,-5.836 -1.988,-10.703 -5.949,-14.679 -3.934,-3.938 -8.844,-5.91 -14.637,-5.91 -5.519,0 -10.261,1.972 -14.234,5.91 -3.977,3.976 -5.945,8.843 -5.945,14.679 v 121.481 c 0,5.793 -0.856,10.551 -2.559,14.226 -1.711,3.715 -4.094,6.618 -7.117,8.704 -3.051,2.117 -6.524,3.64 -10.485,4.574 -3.957,0.922 -8.086,1.367 -12.285,1.367 -7.113,0 -13.246,-0.445 -18.41,-1.367 -5.144,-0.934 -10.871,-2.309 -17.203,-4.172 V 121.777 c 0,-5.836 -1.988,-10.703 -5.922,-14.679 -3.961,-3.938 -8.719,-5.91 -14.258,-5.91 -5.82,0 -10.679,1.972 -14.664,5.91 -3.933,3.976 -5.902,8.843 -5.902,14.679 v 152.325 c 0,5.273 1.508,10.109 4.531,14.457 3.051,4.347 7.059,7.578 12.074,9.699 10.297,3.972 20.59,6.875 30.864,8.695 10.32,1.856 21.242,2.789 32.851,2.789 9.492,0 18.336,-1.414 26.52,-4.168 8.168,-2.785 15.285,-6.801 21.363,-12.074 8.18,5.273 16.945,9.289 26.312,12.074 9.36,2.754 19.059,4.168 29.09,4.168 10.559,0 20.442,-1.933 29.68,-5.722 9.238,-3.875 17.148,-9.071 23.762,-15.653 6.582,-6.609 11.781,-14.519 15.613,-23.742 3.824,-9.254 5.758,-19.137 5.758,-29.695 V 121.777 c 0,-5.836 -1.973,-10.703 -5.949,-14.679 -3.969,-3.938 -8.84,-5.91 -14.641,-5.91 -5.816,0 -10.625,1.972 -14.453,5.91 -3.813,3.976 -5.727,8.843 -5.727,14.679 V 238.09" /><path
         id="path30"
         style="fill:#3c3a3e;fill-opacity:1;fill-rule:nonzero;stroke:none"
         d="m 1108.78,191.012 h -40.77 c -8.72,0 -15.51,-1.008 -20.4,-2.969 -4.87,-1.973 -8.49,-4.355 -10.85,-7.105 -2.4,-2.786 -3.87,-5.61 -4.39,-8.508 -0.51,-2.899 -0.77,-5.164 -0.77,-6.727 0,-1.859 0.26,-4.316 0.77,-7.32 0.52,-3.047 1.99,-6.02 4.39,-8.914 2.36,-2.906 5.98,-5.399 10.85,-7.512 4.89,-2.113 11.68,-3.16 20.4,-3.16 6.86,0 13.79,0.445 20.77,1.371 6.99,0.934 13.64,2.16 20,3.762 z m 40.75,-55.41 c 0,-5.539 -1.59,-10.485 -4.74,-14.832 -3.16,-4.348 -7.41,-7.465 -12.68,-9.286 -9.75,-3.418 -20.12,-6.019 -31.07,-7.73 -10.93,-1.703 -21.95,-2.566 -33.03,-2.566 -24.01,0 -42.88,5.804 -56.59,17.398 -13.721,11.625 -20.592,27.309 -20.592,47.117 0,18.985 6.871,34.149 20.592,45.485 13.71,11.628 32.58,17.425 56.59,17.425 h 40.77 v 13.867 c 0,8.426 -2.95,15.493 -8.72,21.141 -5.8,5.692 -13.84,8.508 -24.14,8.508 -9.25,0 -16.98,-0.738 -23.15,-2.149 -6.2,-1.449 -12.73,-4.316 -19.58,-8.511 -3.72,-2.383 -7.4,-3.574 -11.07,-3.574 -5.31,0 -9.85,1.718 -13.68,5.128 -3.82,3.461 -5.72,7.661 -5.72,12.68 0,3.672 0.78,7.129 2.35,10.281 1.59,3.164 4.11,5.809 7.53,7.922 10.82,6.059 21.37,10.215 31.67,12.449 10.29,2.262 22.55,3.387 36.78,3.387 11.1,0 20.93,-1.855 29.5,-5.539 8.56,-3.715 15.69,-8.656 21.36,-14.824 5.66,-6.211 10.01,-13.418 13.06,-21.598 3.02,-8.168 4.56,-16.605 4.56,-25.301 V 135.602" /><path
         id="path32"
         style="fill:#3c3a3e;fill-opacity:1;fill-rule:nonzero;stroke:none"
         d="m 1197.78,250.766 c 0,8.472 1.52,16.238 4.56,23.336 3.04,7.128 7.2,13.343 12.47,18.613 5.28,5.281 11.47,9.441 18.6,12.453 7.14,3.051 14.9,4.574 23.34,4.574 9.23,0 19.14,-1.043 29.7,-3.164 4.75,-1.074 8.63,-3.379 11.67,-6.945 3.04,-3.574 4.56,-7.699 4.56,-12.457 0,-5.266 -1.8,-9.766 -5.35,-13.446 -3.57,-3.714 -8.25,-5.542 -14.04,-5.542 h -3.18 c -0.78,0 -1.99,0.265 -3.56,0.781 -3.19,0.785 -6.46,1.523 -9.91,2.203 -3.42,0.629 -6.69,0.957 -9.89,0.957 -5,0 -9.29,-1.777 -12.85,-5.313 -3.55,-3.562 -5.36,-7.882 -5.36,-12.855 V 121.777 c 0,-5.836 -1.97,-10.703 -5.92,-14.679 -3.96,-3.938 -8.71,-5.91 -14.24,-5.91 -5.81,0 -10.68,1.972 -14.63,5.91 -3.99,3.976 -5.97,8.843 -5.97,14.679 v 128.989" /><path
         id="path34"
         style="fill:#3c3a3e;fill-opacity:1;fill-rule:nonzero;stroke:none"
         d="m 1333.14,365.926 c 0,5.793 1.99,10.699 5.92,14.644 3.99,3.938 8.85,5.942 14.65,5.942 5.55,0 10.29,-2.004 14.26,-5.942 3.95,-3.945 5.94,-8.851 5.94,-14.644 v -60.164 h 38.38 c 5.81,0 10.68,-1.813 14.64,-5.539 3.95,-3.676 5.93,-8.289 5.93,-13.828 0,-6.086 -1.93,-10.879 -5.74,-14.454 -3.81,-3.562 -8.79,-5.351 -14.83,-5.351 h -38.38 V 163.324 c 0,-7.652 1.68,-13.636 5.14,-18.023 3.42,-4.348 7.77,-6.504 13.06,-6.504 2.88,0 5.26,0.109 7.12,0.379 1.82,0.258 3.49,0.59 4.94,0.992 1.45,0.375 2.83,0.785 4.14,1.187 1.32,0.379 2.92,0.602 4.76,0.602 5.03,0 9.57,-1.676 13.65,-4.945 4.1,-3.305 6.14,-7.992 6.14,-14.082 0,-4.977 -1.63,-9.215 -4.94,-12.633 -3.31,-3.461 -7.47,-5.688 -12.45,-6.727 -7.92,-1.601 -15.73,-2.382 -23.36,-2.382 -8.19,0 -15.85,1.527 -22.96,4.535 -7.12,3.047 -13.4,7.285 -18.79,12.672 -5.42,5.39 -9.66,11.894 -12.67,19.398 -3.03,7.508 -4.55,15.867 -4.55,25.121 v 203.012" /><path
         id="path36"
         style="fill:#67686d;fill-opacity:1;fill-rule:nonzero;stroke:none"
         d="m 1490.23,171.609 c 0,-14.23 3.98,-25.379 11.9,-33.406 7.89,-8.062 18.98,-12.082 33.22,-12.082 15.57,0 30.73,2.234 45.52,6.731 V 266.59 c -6.09,5.808 -13.06,9.89 -20.96,12.265 -7.91,2.375 -16.11,3.567 -24.56,3.567 -14.24,0 -25.33,-4.008 -33.22,-12.07 -7.92,-8.028 -11.9,-19.176 -11.9,-33.454 z m 45.12,-70.421 c -10.82,0 -20.65,1.785 -29.47,5.316 -8.85,3.609 -16.43,8.516 -22.74,14.863 -6.36,6.317 -11.24,13.903 -14.68,22.75 -3.42,8.836 -5.13,18.68 -5.13,29.504 v 61.309 c 0,22.183 6.46,39.765 19.4,52.847 12.93,13.039 30.47,19.582 52.62,19.582 8.18,0 16.09,-1.074 23.74,-3.156 7.66,-2.125 14.9,-5.019 21.78,-8.695 v 77.555 c 0,3.675 1.3,6.839 3.94,9.48 2.64,2.629 5.83,3.969 9.51,3.969 3.7,0 6.86,-1.34 9.49,-3.969 2.65,-2.641 3.96,-5.805 3.96,-9.48 V 128.465 c 0,-3.934 -1.18,-7.508 -3.56,-10.664 -2.38,-3.153 -5.43,-5.422 -9.11,-6.727 -9.49,-3.16 -19.17,-5.609 -29.05,-7.32 -9.93,-1.703 -20.15,-2.566 -30.7,-2.566" /><path
         id="path38"
         style="fill:#67686d;fill-opacity:1;fill-rule:nonzero;stroke:none"
         d="m 1663.19,252.73 c 0,8.176 1.37,15.649 4.15,22.375 2.75,6.727 6.45,12.45 11.06,17.204 4.63,4.757 10.09,8.472 16.4,11.113 6.36,2.601 13.09,3.937 20.2,3.937 8.97,0 18.45,-1.074 28.51,-3.156 3.16,-0.523 5.74,-2.125 7.71,-4.754 1.97,-2.636 2.97,-5.429 2.97,-8.328 0,-3.676 -1.34,-6.726 -3.94,-9.07 -2.68,-2.406 -5.83,-3.567 -9.51,-3.567 -1.08,0 -2.12,0.118 -3.16,0.371 -1.08,0.262 -2.27,0.52 -3.57,0.79 -3.16,0.55 -6.28,1 -9.29,1.406 -3.05,0.371 -6.28,0.59 -9.72,0.59 -6.85,0 -12.72,-2.446 -17.59,-7.317 -4.89,-4.906 -7.32,-11.672 -7.32,-20.363 V 114.648 c 0,-3.714 -1.34,-6.878 -3.98,-9.515 -2.64,-2.606 -5.79,-3.945 -9.47,-3.945 -3.72,0 -6.88,1.339 -9.52,3.945 -2.64,2.637 -3.93,5.801 -3.93,9.515 V 252.73" /><path
         id="path40"
         style="fill:#67686d;fill-opacity:1;fill-rule:nonzero;stroke:none"
         d="m 1893.47,196.957 h -45.1 c -10.01,0 -18.07,-1.074 -24.13,-3.164 -6.07,-2.113 -10.7,-4.902 -13.86,-8.324 -3.16,-3.414 -5.2,-7.168 -6.13,-11.254 -0.93,-4.086 -1.38,-8.141 -1.38,-12.082 0,-3.973 0.45,-8.063 1.38,-12.305 0.93,-4.195 2.97,-8.094 6.13,-11.625 3.16,-3.566 7.79,-6.508 13.86,-8.73 6.06,-2.227 14.12,-3.352 24.13,-3.352 15.3,0 30.33,2.234 45.1,6.731 z m 26.92,-68.492 c 0,-3.934 -1.19,-7.508 -3.56,-10.664 -2.37,-3.153 -5.41,-5.422 -9.1,-6.727 -9.51,-3.16 -19.18,-5.609 -29.09,-7.32 -9.9,-1.703 -19.99,-2.566 -30.27,-2.566 -24,0 -42.34,5.648 -55.01,17.027 -11.61,10.25 -17.4,24.933 -17.4,43.918 0,18.469 5.79,33.07 17.4,43.926 6.07,5.539 13.71,9.546 22.96,12.035 9.23,2.535 19.92,3.801 32.05,3.801 h 45.1 v 24.929 c 0,11.852 -3.83,20.774 -11.48,26.68 -7.61,5.949 -17.81,8.918 -30.44,8.918 -7.91,0 -15.59,-1.113 -22.96,-3.379 -7.39,-2.23 -14.91,-5.605 -22.56,-10.074 -2.12,-1.336 -4.23,-1.965 -6.31,-1.965 -3.72,0 -6.88,1.117 -9.52,3.348 -2.64,2.265 -3.94,5.351 -3.94,9.293 0,5.007 2.22,8.984 6.73,11.878 9.21,5.801 18.84,9.895 28.85,12.27 10.02,2.375 19.94,3.566 29.71,3.566 9.22,0 17.99,-1.265 26.32,-3.75 8.28,-2.523 15.6,-6.285 21.95,-11.3 6.32,-4.981 11.34,-11.258 15.02,-18.805 3.71,-7.5 5.55,-16.274 5.55,-26.313 V 128.465" /><path
         id="path42"
         style="fill:#67686d;fill-opacity:1;fill-rule:nonzero;stroke:none"
         d="m 2079.87,257.484 -39.58,-144.437 c -1.06,-3.684 -2.97,-6.582 -5.72,-8.695 -2.79,-2.082 -6.02,-3.164 -9.72,-3.164 -3.68,0 -6.91,1.082 -9.68,3.164 -2.78,2.113 -4.68,4.863 -5.72,8.324 l -52.66,177.262 c -0.52,1.585 -0.79,2.894 -0.79,3.968 0,3.16 1.2,6.137 3.56,8.883 2.39,2.785 5.69,4.164 9.91,4.164 2.89,0 5.61,-0.859 8.09,-2.562 2.5,-1.715 4.17,-4.016 4.96,-6.914 l 41.94,-147.239 39.97,145.27 c 1.04,3.418 2.97,6.238 5.74,8.512 2.78,2.226 5.99,3.339 9.7,3.339 3.69,0 6.93,-1.113 9.7,-3.339 2.78,-2.274 4.68,-5.094 5.72,-8.512 l 39.58,-145.27 41.95,147.239 c 0.78,2.898 2.42,5.199 4.95,6.914 2.51,1.703 5.2,2.562 8.12,2.562 3.41,0 6.52,-1.265 9.3,-3.754 2.77,-2.492 4.13,-5.605 4.13,-9.293 0,-1.074 -0.26,-2.383 -0.78,-3.968 l -52.62,-177.262 c -1.06,-3.461 -2.9,-6.211 -5.54,-8.324 -2.64,-2.082 -5.82,-3.164 -9.51,-3.164 -3.7,0 -6.94,1.082 -9.69,3.164 -2.76,2.113 -4.69,5.011 -5.73,8.695 l -39.58,144.437" /><path
         id="path44"
         style="fill:#100f0d;fill-opacity:1;fill-rule:nonzero;stroke:none"
         d="m 2233.16,285.582 h 2.61 c 2.98,0 5.51,1.082 5.51,3.867 0,2.004 -1.47,4.016 -5.51,4.016 -1.19,0 -2.02,-0.117 -2.61,-0.188 z m 0,-12.633 h -3.66 v 22.75 c 1.92,0.293 3.73,0.551 6.45,0.551 3.43,0 5.68,-0.703 7.06,-1.707 1.36,-1.008 2.08,-2.57 2.08,-4.723 0,-2.968 -1.99,-4.793 -4.44,-5.504 v -0.187 c 1.99,-0.363 3.36,-2.188 3.83,-5.527 0.54,-3.539 1.05,-4.907 1.45,-5.653 h -3.81 c -0.56,0.746 -1.12,2.821 -1.57,5.836 -0.52,2.899 -1.97,3.973 -4.88,3.973 h -2.51 z m 3.79,29.098 c -8.97,0 -16.32,-7.692 -16.32,-17.203 0,-9.703 7.35,-17.285 16.4,-17.285 9.06,-0.102 16.31,7.582 16.31,17.211 0,9.585 -7.25,17.277 -16.31,17.277 z m 0.08,3.195 c 11.14,0 20.03,-9.066 20.03,-20.398 0,-11.485 -8.89,-20.481 -20.11,-20.481 -11.15,0 -20.22,8.996 -20.22,20.481 0,11.332 9.07,20.398 20.22,20.398 h 0.08" /></g></g></svg>