<?xml version="1.0" standalone="no"?>
<!DOCTYPE svg PUBLIC "-//W3C//DTD SVG 20010904//EN"
 "http://www.w3.org/TR/2001/REC-SVG-20010904/DTD/svg10.dtd">
<svg version="1.0" xmlns="http://www.w3.org/2000/svg"
 width="700.000000pt" height="700.000000pt" viewBox="0 0 700.000000 700.000000"
 preserveAspectRatio="xMidYMid meet">
<metadata>
Created by potrace 1.11, written by Peter Selinger 2001-2013
</metadata>
<g transform="translate(0.000000,700.000000) scale(0.100000,-0.100000)"
fill="#000000" stroke="none">
<path d="M1557 6974 c-1 -1 -45 -4 -97 -8 -115 -7 -163 -13 -215 -27 -22 -6
-51 -13 -65 -16 -41 -7 -170 -54 -245 -88 -83 -38 -187 -100 -270 -163 -92
-68 -272 -257 -347 -362 -126 -177 -225 -410 -253 -595 -3 -22 -7 -47 -10 -55
-2 -8 -7 -53 -10 -100 -7 -107 -7 -3984 0 -4103 21 -355 178 -690 451 -962
145 -144 258 -226 422 -305 187 -91 353 -134 567 -146 145 -8 2485 -8 2599 0
90 6 214 23 226 31 4 2 22 7 41 10 64 11 214 66 317 116 325 158 566 378 694
634 36 71 85 196 92 231 2 10 11 46 19 79 17 63 36 192 43 285 4 43 8 2369 5
2443 -1 16 -85 17 -1653 15 l-1652 -3 -1 -365 c0 -201 1 -375 3 -387 l4 -23
879 0 879 0 -1 -797 c-1 -860 -2 -881 -55 -1033 -71 -206 -224 -354 -436 -418
-138 -43 -171 -45 -724 -43 -489 1 -538 3 -607 20 -168 43 -332 156 -432 296
-68 95 -90 146 -132 296 -4 13 -8 938 -9 2055 -2 1984 -2 2032 17 2114 71 305
341 553 639 588 67 8 3248 7 3295 -1 162 -27 280 -82 376 -176 105 -103 177
-244 222 -435 l21 -91 0 -2000 c-1 -1798 -3 -2103 -19 -2225 -13 -104 -18
-130 -31 -185 -78 -308 -250 -568 -505 -764 -90 -69 -111 -82 -219 -138 -76
-40 -282 -111 -346 -120 -24 -3 -44 -8 -44 -12 0 -12 493 -1 580 13 14 2 46 7
71 10 534 73 918 309 1115 686 98 188 155 403 171 650 9 136 9 4091 0 4190 -4
41 -14 113 -23 160 -8 47 -18 99 -21 115 -14 79 -80 271 -125 365 -216 449
-592 686 -1168 736 -58 5 -4026 13 -4033 8z"/>
</g>
</svg>
